<svg id="Capa_1" data-name="Capa 1" xmlns="http://www.w3.org/2000/svg" xmlns:xlink="http://www.w3.org/1999/xlink" viewBox="0 0 1920 1080"><defs><style>.cls-1{fill:url(#Degradado_sin_nombre_90);}.cls-2{fill:url(#Degradado_sin_nombre_90-2);}.cls-3{fill:#fff;}</style><linearGradient id="Degradado_sin_nombre_90" x1="1273.8" y1="431.28" x2="105.09" y2="1131.35" gradientUnits="userSpaceOnUse"><stop offset="0" stop-color="#fff"/><stop offset="0.24" stop-color="#c7c7c7"/><stop offset="0.78" stop-color="#3b3b3b"/><stop offset="1"/></linearGradient><linearGradient id="Degradado_sin_nombre_90-2" x1="1273.79" y1="431.27" x2="105.08" y2="1131.34" xlink:href="#Degradado_sin_nombre_90"/></defs><title>Mesa de trabajo 1</title><path class="cls-1" d="M708.12,759.3c26.45-60.87,153.77-327.89,327.94-267.72a4.37,4.37,0,0,1,.43,8.07c-27.27,12.89-98.53,50.18-10.06,50.18,101.4,0,153.8-20.47,218.57-61.54a5,5,0,0,1,7.46,5.59c-12.74,43.24-66.94,185.43-234.89,215.59a199.27,199.27,0,0,1-44.44,2.74c-41.82-1.93-156.89-1.37-258.73,52.9A4.53,4.53,0,0,1,708.12,759.3Z"/><path class="cls-2" d="M712.26,766.15a5,5,0,0,1-4.6-7l.46.19-.46-.19c13.81-31.79,52.05-112.9,108.66-179.38C848.45,542,881.6,514.83,914.85,499c40.28-19.15,81.11-21.81,121.37-7.9a4.87,4.87,0,0,1,.49,9c-16.7,7.89-55.25,27.51-52.6,39.3,1.47,6.59,15.71,9.92,42.32,9.92,102.59,0,154-20.7,218.3-61.46a5.48,5.48,0,0,1,8.21,6.15c-12.68,43-67.12,185.75-235.29,215.94a199.81,199.81,0,0,1-44.54,2.75c-44.08-2-157.51-1-258.48,52.84A4.94,4.94,0,0,1,712.26,766.15ZM984.89,483.24c-56.54,0-112.79,32.5-167.81,97.14-56.52,66.38-94.71,147.38-108.5,179.12a4,4,0,0,0,5.58,5.17c101.19-53.92,214.83-55,259-52.95a199.75,199.75,0,0,0,44.33-2.75c167.6-30.09,221.86-172.35,234.5-215.23a4.48,4.48,0,0,0-6.71-5c-64.46,40.87-116,61.62-218.84,61.62-27.52,0-41.68-3.5-43.3-10.7-2.7-12,32.14-30.5,53.15-40.43a3.87,3.87,0,0,0-.38-7.15A155.39,155.39,0,0,0,984.89,483.24Z"/><path class="cls-3" d="M813.38,315.31c15.57,22.1,80.45,125.59,3.79,219.36,0,0-64.8,74-90.34,116.22a6.39,6.39,0,0,1-10.67.41c-15.55-21.64-50.22-89.37,23.12-195.3,81.77-118.11,57.77-128.55,66.9-140.95A4.47,4.47,0,0,1,813.38,315.31Z"/><path class="cls-3" d="M721.36,654.48a6.91,6.91,0,0,1-5.61-2.89c-7.54-10.49-20.41-33.06-21.87-66.31-1.76-40.3,13.37-83.89,45-129.56,61.16-88.35,63.08-116.48,64-130,.32-4.66.53-7.74,2.9-11a4.76,4.76,0,0,1,3.88-1.9,5.14,5.14,0,0,1,4.14,2.17h0c8.15,11.56,28,42.79,36.56,83,10.85,51-.19,97.09-32.79,137-.66.76-65.07,74.42-90.3,116.17a6.85,6.85,0,0,1-5.62,3.32Zm88.23-340.63a3.69,3.69,0,0,0-3,1.49c-2.21,3-2.4,5.8-2.71,10.45-.93,13.61-2.86,41.92-64.18,130.5-31.49,45.48-46.57,88.87-44.81,129,1.45,33,14.21,55.37,21.68,65.77a5.93,5.93,0,0,0,5,2.46,5.87,5.87,0,0,0,4.81-2.84c25.27-41.82,89.74-115.55,90.38-116.29,76.83-94,10.3-198.7-3.81-218.74h0a4.15,4.15,0,0,0-3.34-1.75Z"/></svg>